<svg xmlns="http://www.w3.org/2000/svg" width="666" height="260" viewBox="0 0 1000 390" font-family="Helvetica,Arial,sans-serif">
<rect x="20.0" y="30.0" width="172" height="140" rx="8" fill="#fcfcfc" stroke="#dcdcdc"/>
<rect x="72.4" y="74.8" width="67.2" height="50.4" fill="none" stroke="#1a1a1a" stroke-width="2.4"/>
<rect x="202.0" y="30.0" width="172" height="140" rx="8" fill="#fcfcfc" stroke="#dcdcdc"/>
<rect x="254.4" y="74.8" width="67.2" height="50.4" fill="none" stroke="#1a1a1a" stroke-width="2.4"/>
<line x1="288.0" y1="74.8" x2="288.0" y2="125.2" stroke="#1a1a1a" stroke-width="2.4" stroke-linecap="round"/>
<rect x="384.0" y="30.0" width="172" height="140" rx="8" fill="#fcfcfc" stroke="#dcdcdc"/>
<rect x="436.4" y="74.8" width="67.2" height="50.4" fill="none" stroke="#1a1a1a" stroke-width="2.4"/>
<line x1="458.8" y1="74.8" x2="458.8" y2="125.2" stroke="#1a1a1a" stroke-width="2.4" stroke-linecap="round"/>
<line x1="481.2" y1="74.8" x2="481.2" y2="125.2" stroke="#1a1a1a" stroke-width="2.4" stroke-linecap="round"/>
<rect x="566.0" y="30.0" width="172" height="140" rx="8" fill="#fcfcfc" stroke="#dcdcdc"/>
<rect x="618.4" y="74.8" width="67.2" height="50.4" fill="none" stroke="#1a1a1a" stroke-width="2.4"/>
<line x1="635.2" y1="74.8" x2="635.2" y2="125.2" stroke="#1a1a1a" stroke-width="2.4" stroke-linecap="round"/>
<line x1="652.0" y1="74.8" x2="652.0" y2="125.2" stroke="#1a1a1a" stroke-width="2.4" stroke-linecap="round"/>
<line x1="668.8" y1="74.8" x2="668.8" y2="125.2" stroke="#1a1a1a" stroke-width="2.4" stroke-linecap="round"/>
<rect x="748.0" y="30.0" width="172" height="140" rx="8" fill="#fcfcfc" stroke="#dcdcdc"/>
<text x="834.0" y="110.0" font-size="30" text-anchor="middle" fill="#999">?</text>
<rect x="141.0" y="215.0" width="172" height="140" rx="8" fill="#fcfcfc" stroke="#dcdcdc"/>
<rect x="193.4" y="259.8" width="67.2" height="50.4" fill="none" stroke="#1a1a1a" stroke-width="2.4"/>
<line x1="215.8" y1="259.8" x2="215.8" y2="310.2" stroke="#1a1a1a" stroke-width="2.4" stroke-linecap="round"/>
<line x1="238.2" y1="259.8" x2="238.2" y2="310.2" stroke="#1a1a1a" stroke-width="2.4" stroke-linecap="round"/>
<text x="227.0" y="207.0" font-size="16" text-anchor="middle" fill="#666">A</text>
<rect x="323.0" y="215.0" width="172" height="140" rx="8" fill="#fcfcfc" stroke="#dcdcdc"/>
<rect x="375.4" y="259.8" width="67.2" height="50.4" fill="none" stroke="#1a1a1a" stroke-width="2.4"/>
<line x1="392.2" y1="259.8" x2="392.2" y2="310.2" stroke="#1a1a1a" stroke-width="2.4" stroke-linecap="round"/>
<line x1="409.0" y1="259.8" x2="409.0" y2="310.2" stroke="#1a1a1a" stroke-width="2.4" stroke-linecap="round"/>
<line x1="425.8" y1="259.8" x2="425.8" y2="310.2" stroke="#1a1a1a" stroke-width="2.4" stroke-linecap="round"/>
<text x="409.0" y="207.0" font-size="16" text-anchor="middle" fill="#666">B</text>
<rect x="505.0" y="215.0" width="172" height="140" rx="8" fill="#fcfcfc" stroke="#dcdcdc"/>
<rect x="557.4" y="259.8" width="67.2" height="50.4" fill="none" stroke="#1a1a1a" stroke-width="2.4"/>
<line x1="570.8" y1="259.8" x2="570.8" y2="310.2" stroke="#1a1a1a" stroke-width="2.4" stroke-linecap="round"/>
<line x1="584.3" y1="259.8" x2="584.3" y2="310.2" stroke="#1a1a1a" stroke-width="2.4" stroke-linecap="round"/>
<line x1="597.7" y1="259.8" x2="597.7" y2="310.2" stroke="#1a1a1a" stroke-width="2.4" stroke-linecap="round"/>
<line x1="611.2" y1="259.8" x2="611.2" y2="310.2" stroke="#1a1a1a" stroke-width="2.4" stroke-linecap="round"/>
<text x="591.0" y="207.0" font-size="16" text-anchor="middle" fill="#666">C</text>
<rect x="687.0" y="215.0" width="172" height="140" rx="8" fill="#fcfcfc" stroke="#dcdcdc"/>
<rect x="739.4" y="259.8" width="67.2" height="50.4" fill="none" stroke="#1a1a1a" stroke-width="2.4"/>
<line x1="750.6" y1="259.8" x2="750.6" y2="310.2" stroke="#1a1a1a" stroke-width="2.4" stroke-linecap="round"/>
<line x1="761.8" y1="259.8" x2="761.8" y2="310.2" stroke="#1a1a1a" stroke-width="2.4" stroke-linecap="round"/>
<line x1="773.0" y1="259.8" x2="773.0" y2="310.2" stroke="#1a1a1a" stroke-width="2.4" stroke-linecap="round"/>
<line x1="784.2" y1="259.8" x2="784.2" y2="310.2" stroke="#1a1a1a" stroke-width="2.4" stroke-linecap="round"/>
<line x1="795.4" y1="259.8" x2="795.4" y2="310.2" stroke="#1a1a1a" stroke-width="2.4" stroke-linecap="round"/>
<text x="773.0" y="207.0" font-size="16" text-anchor="middle" fill="#666">D</text>
</svg>
